<?xml version="1.0" encoding="UTF-8" standalone="no"?>
<!DOCTYPE svg PUBLIC "-//W3C//DTD SVG 1.1//EN" "http://www.w3.org/Graphics/SVG/1.1/DTD/svg11.dtd">
<svg xmlns="http://www.w3.org/2000/svg" version="1.1" viewBox="0 0 373 123">
<path fill="#1274c6" d="
  M 47.40 80.60
  Q 56.08 88.95 64.39 97.59
  A 1.00 1.00 0.0 0 1 64.35 99.02
  Q 62.20 101.03 60.05 103.04
  C 54.89 107.87 49.30 107.86 44.25 102.99
  Q 18.65 78.28 12.04 71.46
  C 7.31 66.58 8.82 60.81 13.24 56.23
  Q 27.19 41.79 41.23 27.44
  C 49.60 18.88 56.34 22.51 63.14 30.30
  A 0.99 0.99 0.0 0 1 63.11 31.65
  Q 47.25 48.11 42.62 52.60
  Q 34.83 60.16 38.00 69.35
  C 39.51 73.72 43.99 77.31 47.40 80.60
  Z
  M 28.96 64.50
  A 4.91 4.91 0.0 0 0 24.05 59.59
  A 4.91 4.91 0.0 0 0 19.14 64.50
  A 4.91 4.91 0.0 0 0 24.05 69.41
  A 4.91 4.91 0.0 0 0 28.96 64.50
  Z"
/>
<path fill="#0c3b70" d="
  M 87.06 75.31
  Q 78.11 84.83 68.75 94.30
  A 1.00 1.00 0.0 0 1 67.34 94.31
  L 53.26 80.46
  Q 51.92 79.14 53.77 78.77
  Q 63.48 76.81 65.52 67.92
  C 66.97 61.57 64.30 55.75 59.14 52.03
  Q 56.43 50.08 53.06 49.97
  Q 51.21 49.91 52.52 48.61
  L 66.37 34.75
  A 1.00 1.00 0.0 0 1 67.77 34.74
  Q 79.21 45.74 90.27 56.98
  C 97.56 64.40 92.34 69.70 87.06 75.31
  Z"
/>
<path fill="#333333" d="
  M 163.22 54.50
  L 167.47 54.50
  A 1.01 1.00 82.5 0 1 168.44 55.25
  L 170.60 63.50
  A 1.00 1.00 0.0 0 1 169.63 64.75
  L 163.45 64.75
  A 1.00 1.00 0.0 0 0 162.45 65.76
  L 162.85 92.74
  A 1.00 1.00 0.0 0 1 161.85 93.75
  L 153.77 93.75
  A 1.00 1.00 0.0 0 1 152.77 92.77
  Q 152.40 77.07 152.17 61.43
  Q 152.02 51.61 153.49 47.39
  Q 157.41 36.17 171.04 34.27
  A 1.01 1.00 -4.1 0 1 172.18 35.25
  L 172.27 43.54
  A 1.00 1.00 0.0 0 1 171.43 44.54
  Q 163.92 45.73 162.24 53.29
  A 1.00 1.00 0.0 0 0 163.22 54.50
  Z"
/>
<path fill="#333333" d="
  M 293.11 52.59
  L 292.83 35.27
  A 1.01 1.00 89.7 0 1 293.83 34.25
  L 301.97 34.25
  A 1.00 0.99 -0.3 0 1 302.97 35.23
  L 304.01 92.73
  A 1.00 1.00 0.0 0 1 303.01 93.75
  L 294.79 93.75
  A 1.00 1.00 0.0 0 1 293.79 92.76
  Q 293.72 84.55 293.58 76.25
  Q 293.47 70.42 292.46 67.88
  C 289.96 61.64 282.79 58.83 276.65 61.18
  C 262.50 66.62 270.14 88.22 285.25 84.14
  A 1.01 1.01 0.0 0 1 286.43 84.72
  L 289.43 91.73
  A 1.00 1.00 0.0 0 1 288.89 93.05
  Q 283.15 95.41 277.01 94.19
  C 254.08 89.65 252.64 55.56 275.84 50.56
  Q 283.99 48.81 291.59 53.46
  Q 293.14 54.41 293.11 52.59
  Z"
/>
<path fill="#333333" d="
  M 204.22 63.12
  A 1.00 1.00 0.0 0 1 202.86 63.20
  C 192.05 54.29 176.89 67.21 185.21 79.43
  C 189.23 85.34 197.64 86.14 203.21 81.64
  A 1.00 0.99 47.7 0 1 204.54 81.71
  L 210.54 87.64
  A 1.00 1.00 0.0 0 1 210.42 89.17
  Q 196.86 98.85 184.13 91.47
  C 164.76 80.24 171.60 50.70 194.40 50.18
  Q 202.75 49.99 209.72 55.82
  A 0.99 0.99 0.0 0 1 209.80 57.27
  L 204.22 63.12
  Z"
/>
<path fill="#333333" d="
  M 321.51 77.50
  Q 319.54 77.50 320.71 79.09
  Q 326.68 87.19 336.81 83.24
  A 0.98 0.94 44.0 0 1 337.54 83.24
  L 346.19 86.65
  A 1.00 0.99 -56.5 0 1 346.52 88.29
  Q 340.29 94.43 331.70 94.62
  C 317.29 94.94 305.70 81.60 308.94 67.32
  C 312.16 53.14 327.06 46.14 340.18 52.52
  Q 353.85 59.17 352.83 76.56
  A 1.00 1.00 0.0 0 1 351.83 77.50
  L 321.51 77.50
  Z
  M 320.30 65.87
  Q 318.96 67.50 321.07 67.50
  L 339.89 67.50
  A 1.00 1.00 0.0 0 0 340.79 66.05
  Q 339.53 63.55 337.54 62.46
  Q 327.58 57.00 320.30 65.87
  Z"
/>
<path fill="#333333" d="
  M 142.5016 87.7951
  A 22.45 22.06 43.4 0 1 111.0328 88.3982
  A 22.45 22.06 43.4 0 1 109.8784 56.9449
  A 22.45 22.06 43.4 0 1 141.3472 56.3418
  A 22.45 22.06 43.4 0 1 142.5016 87.7951
  Z
  M 138.33 72.44
  A 12.15 12.15 0.0 0 0 126.18 60.29
  A 12.15 12.15 0.0 0 0 114.03 72.44
  A 12.15 12.15 0.0 0 0 126.18 84.59
  A 12.15 12.15 0.0 0 0 138.33 72.44
  Z"
/>
<path fill="#333333" d="
  M 249.4563 87.9017
  A 22.44 22.07 43.8 0 1 217.9844 88.2992
  A 22.44 22.07 43.8 0 1 217.0637 56.8383
  A 22.44 22.07 43.8 0 1 248.5356 56.4408
  A 22.44 22.07 43.8 0 1 249.4563 87.9017
  Z
  M 245.40 72.43
  A 12.15 12.15 0.0 0 0 233.25 60.28
  A 12.15 12.15 0.0 0 0 221.10 72.43
  A 12.15 12.15 0.0 0 0 233.25 84.58
  A 12.15 12.15 0.0 0 0 245.40 72.43
  Z"
/>
<circle fill="#fb941c" cx="51.44" cy="64.39" r="10.27"/>
</svg>
