<?xml version="1.0" encoding="UTF-8" standalone="no"?>
<!DOCTYPE svg PUBLIC "-//W3C//DTD SVG 1.1//EN" "http://www.w3.org/Graphics/SVG/1.1/DTD/svg11.dtd">
<svg xmlns="http://www.w3.org/2000/svg" version="1.1" viewBox="0 0 453 138">
<g stroke-width="2.00" fill="none" stroke-linecap="butt">
<path stroke="#252525" vector-effect="non-scaling-stroke" d="
  M 35.06 0.00
  Q 37.28 -0.01 37.24 1.38
  Q 37.23 1.79 37.43 2.32
  Q 38.16 4.35 37.99 6.49
  A 1.58 1.25 -66.6 0 0 38.26 7.51
  Q 39.23 8.75 38.71 10.24
  A 1.19 0.40 54.0 0 0 38.99 11.14
  Q 39.85 12.55 40.65 13.97
  C 41.78 15.98 41.62 18.18 42.71 20.38
  A 1.72 1.51 -57.2 0 1 42.85 21.32
  C 42.58 23.10 43.83 24.52 44.68 26.02
  C 45.79 28.00 45.60 30.12 46.67 32.28
  A 1.33 0.49 57.2 0 1 46.88 33.21
  Q 46.32 34.94 47.83 35.91
  A 0.76 0.41 38.0 0 0 48.54 36.03
  Q 49.25 35.56 50.21 35.75"
/>
<path stroke="#185255" vector-effect="non-scaling-stroke" d="
  M 50.21 35.75
  L 49.19 41.71
  A 0.38 0.34 -76.2 0 1 48.74 42.02
  L 37.80 38.48
  A 0.37 0.37 3.4 0 0 37.32 38.90
  Q 37.89 41.71 35.28 40.93
  A 0.43 0.34 8.1 0 0 34.73 41.25
  L 36.37 56.27
  A 0.64 0.60 75.3 0 1 36.02 56.91
  C 27.80 60.46 30.33 72.07 37.76 74.84
  A 0.83 0.75 -84.6 0 1 38.25 75.50
  L 39.19 84.01
  A 0.80 0.76 -86.5 0 0 39.76 84.69
  L 47.57 86.67
  A 0.67 0.55 -85.2 0 1 48.00 87.29
  C 48.15 93.36 49.63 113.58 56.19 116.35
  C 63.34 119.38 62.53 108.82 65.40 106.12
  Q 68.24 103.46 72.54 103.66
  A 0.50 0.50 58.3 0 1 73.02 104.18
  C 72.80 109.18 72.16 121.00 80.49 115.94
  C 86.03 112.57 88.98 96.84 89.75 90.71"
/>
<path stroke="#252525" vector-effect="non-scaling-stroke" d="
  M 89.75 90.71
  Q 91.36 92.20 90.40 93.79
  Q 90.24 94.05 90.15 94.69
  Q 89.98 95.98 90.62 97.15
  A 0.23 0.16 67.3 0 1 90.55 97.46
  Q 90.45 97.48 90.36 97.45
  Q 90.15 97.41 90.22 97.59
  Q 92.25 102.66 95.50 107.10
  A 1.71 1.33 -69.4 0 1 95.78 108.00
  C 95.80 110.24 99.12 114.46 100.64 116.20
  A 1.29 0.62 39.0 0 1 101.02 117.00
  Q 100.88 119.24 102.83 120.13
  A 1.35 0.78 13.2 0 1 103.52 120.78
  Q 104.66 124.23 107.20 126.79
  A 1.68 1.41 22.5 0 1 107.66 127.67
  Q 108.11 130.71 110.74 133.24
  Q 113.43 135.82 110.70 138.00"
/>
<path stroke="#2b2b2b" vector-effect="non-scaling-stroke" d="
  M 161.81 0.00
  Q 163.35 2.49 163.77 5.36
  A 1.49 0.32 84.8 0 0 164.08 6.36
  Q 166.62 9.07 166.85 12.74
  A 1.55 1.04 27.4 0 0 167.35 13.65
  Q 169.46 15.61 169.24 18.50
  A 1.26 1.10 -67.6 0 0 169.56 19.45
  Q 172.21 22.15 172.47 25.97
  A 1.79 0.59 48.5 0 0 172.87 26.90
  L 176.40 32.07
  A 2.00 1.52 33.4 0 1 176.73 33.01
  L 176.75 34.00
  A 1.70 1.00 -76.6 0 0 177.03 34.91
  C 179.58 38.22 179.92 41.81 182.31 44.91
  C 183.67 46.68 185.97 49.50 183.88 51.03
  Q 183.56 51.27 183.96 51.31
  Q 184.88 51.42 184.50 52.21"
/>
<path stroke="#7d8a91" vector-effect="non-scaling-stroke" d="
  M 184.50 52.21
  Q 179.21 50.80 174.84 53.97
  Q 174.25 54.40 174.25 53.75
  L 174.25 43.25
  A 0.50 0.50 0.0 0 0 173.75 42.75
  L 167.00 42.75
  A 0.55 0.44 0.0 0 0 166.45 43.19
  L 166.46 77.82
  A 0.68 0.55 90.0 0 0 167.01 78.50
  L 173.75 78.50
  A 0.50 0.50 0.0 0 0 174.25 78.00
  L 174.22 76.75
  Q 174.22 76.26 174.77 76.63
  Q 181.68 81.28 188.75 76.21"
/>
<path stroke="#2b2b2b" vector-effect="non-scaling-stroke" d="
  M 188.75 76.21
  Q 190.28 75.47 190.41 76.62
  A 0.85 0.28 -35.0 0 1 189.97 77.21
  L 186.73 79.72
  A 0.63 0.49 52.6 0 0 186.72 80.52
  L 192.72 88.27
  A 1.36 0.28 50.3 0 1 193.25 89.26
  Q 192.99 90.98 194.48 91.79
  Q 194.89 92.01 195.11 92.34
  Q 196.42 94.27 197.61 96.30
  C 199.55 99.59 202.44 101.02 203.80 105.03
  C 204.63 107.46 206.86 108.89 208.17 111.31
  C 209.74 114.21 212.24 116.16 213.85 118.90
  Q 216.09 122.70 219.04 126.07
  A 1.13 1.04 30.2 0 1 219.31 126.94
  Q 218.87 129.97 216.79 131.58
  Q 212.82 134.67 210.69 138.00"
/>
<path stroke="#1b5658" vector-effect="non-scaling-stroke" d="
  M 89.75 90.71
  L 90.03 84.30
  A 1.32 0.41 88.7 0 1 90.32 83.30
  Q 91.06 82.71 92.07 82.60
  A 1.27 1.07 -3.7 0 0 93.21 81.50
  L 93.11 71.74
  A 1.02 0.77 75.8 0 1 93.44 70.96
  C 94.32 70.30 95.42 70.16 96.26 69.55
  C 102.63 64.87 100.95 55.85 93.49 53.59
  A 0.68 0.59 9.0 0 1 93.00 53.00
  L 93.00 39.25
  A 0.73 0.40 85.7 0 0 92.49 38.46
  L 90.57 39.10
  A 0.54 0.51 -20.0 0 1 89.91 38.81
  Q 89.61 38.07 89.77 37.25
  Q 89.92 36.49 89.07 36.84
  L 83.06 39.31
  A 0.47 0.44 -18.3 0 1 82.43 39.02
  C 78.41 21.95 56.77 18.79 50.21 35.75"
/>
<path stroke="#1b5658" vector-effect="non-scaling-stroke" d="
  M 67.2608 14.9013
  A 1.63 1.63 0.0 0 0 65.6508 13.2515
  L 65.4508 13.2490
  A 1.63 1.63 0.0 0 0 63.8010 14.8590
  L 63.7592 18.2787
  A 1.63 1.63 0.0 0 0 65.3692 19.9285
  L 65.5692 19.9310
  A 1.63 1.63 0.0 0 0 67.2190 18.3210
  L 67.2608 14.9013"
/>
<path stroke="#1b5658" vector-effect="non-scaling-stroke" d="
  M 75.9801 22.7281
  A 3.38 1.83 129.5 0 0 79.5421 21.2840
  A 3.38 1.83 129.5 0 0 80.2799 17.5119
  A 3.38 1.83 129.5 0 0 76.7179 18.9560
  A 3.38 1.83 129.5 0 0 75.9801 22.7281"
/>
<path stroke="#1b5658" vector-effect="non-scaling-stroke" d="
  M 56.2309 22.3241
  A 1.33 1.33 0.0 0 0 56.1227 20.4464
  L 53.5393 18.1447
  A 1.33 1.33 0.0 0 0 51.6615 18.2529
  L 51.2491 18.7159
  A 1.33 1.33 0.0 0 0 51.3573 20.5936
  L 53.9407 22.8953
  A 1.33 1.33 0.0 0 0 55.8185 22.7871
  L 56.2309 22.3241"
/>
<path stroke="#7d8a91" vector-effect="non-scaling-stroke" d="
  M 129.75 43.07
  A 0.31 0.31 0.0 0 0 129.44 42.76
  L 122.32 42.76
  A 0.31 0.31 0.0 0 0 122.01 43.07
  L 122.01 78.19
  A 0.31 0.31 0.0 0 0 122.32 78.50
  L 129.44 78.50
  A 0.31 0.31 0.0 0 0 129.75 78.19
  L 129.75 43.07"
/>
<path stroke="#7d8a91" vector-effect="non-scaling-stroke" d="
  M 161.8639 65.8385
  A 13.77 13.49 1.7 0 0 148.5002 51.9459
  A 13.77 13.49 1.7 0 0 134.3361 65.0215
  A 13.77 13.49 1.7 0 0 147.6998 78.9141
  A 13.77 13.49 1.7 0 0 161.8639 65.8385"
/>
<path stroke="#313131" vector-effect="non-scaling-stroke" d="
  M 234.06 0.00
  L 223.22 0.25
  Q 220.27 0.32 221.67 2.78
  C 223.36 5.75 223.44 9.26 225.29 11.85
  Q 226.41 13.40 227.47 14.99
  C 228.33 16.26 227.67 17.38 228.64 18.78
  C 230.26 21.14 231.31 22.53 232.28 25.57
  C 233.31 28.80 236.20 30.75 236.68 34.24
  A 1.55 1.45 -72.9 0 0 237.10 35.10
  C 238.37 36.37 241.75 42.36 242.30 42.61
  A 1.56 1.04 6.5 0 1 243.01 43.21
  L 246.97 50.77
  A 0.29 0.12 -33.1 0 1 246.80 51.02
  Q 246.28 51.38 247.26 51.28
  A 0.45 0.33 -6.7 0 1 247.74 51.55
  Q 247.77 51.83 247.50 52.21"
/>
<path stroke="#808d94" vector-effect="non-scaling-stroke" d="
  M 247.50 52.21
  L 240.78 52.27
  A 0.54 0.40 -5.1 0 0 240.23 52.76
  L 240.52 54.00
  Q 240.67 54.66 240.04 54.17
  Q 236.98 51.77 235.20 51.77
  C 224.58 51.73 218.74 59.75 221.29 69.65
  C 223.14 76.83 233.14 82.05 239.78 76.61
  Q 240.28 76.20 240.33 76.75
  L 240.44 77.86
  A 0.61 0.40 85.3 0 0 240.87 78.41
  L 248.53 78.28"
/>
<path stroke="#313131" vector-effect="non-scaling-stroke" d="
  M 248.53 78.28
  L 248.59 56.32
  Q 248.59 55.98 248.63 56.31
  Q 248.78 57.61 249.63 57.98
  A 0.92 0.59 -49.1 0 0 250.45 57.74
  Q 251.32 56.95 252.17 58.31
  Q 252.40 58.67 252.40 58.24
  L 252.43 52.23
  A 0.85 0.68 81.8 0 1 252.88 51.47
  Q 253.59 51.20 253.54 52.50"
/>
<path stroke="#808d94" vector-effect="non-scaling-stroke" d="
  M 253.54 52.50
  L 253.53 77.94
  A 0.56 0.47 90.0 0 0 254.00 78.50
  L 261.00 78.50
  A 0.56 0.48 -88.1 0 0 261.48 77.97
  L 261.54 77.00"
/>
<path stroke="#313131" vector-effect="non-scaling-stroke" d="
  M 261.54 77.00
  Q 261.44 75.32 262.20 73.83
  A 0.46 0.45 30.3 0 1 262.86 73.66
  C 264.74 74.88 265.48 76.91 266.90 78.28
  C 269.91 81.18 271.65 82.33 272.79 86.59
  A 1.87 1.85 -75.3 0 0 273.27 87.42
  Q 278.92 93.06 284.57 98.73
  C 285.66 99.82 285.92 101.32 286.81 102.19
  Q 296.74 111.89 306.33 121.92
  C 306.82 122.43 308.53 122.84 309.35 123.64
  Q 316.03 130.16 323.34 135.96
  A 1.36 0.93 -82.7 0 1 323.75 136.76
  C 323.90 137.82 327.19 137.52 328.94 138.00"
/>
<path stroke="#808d94" vector-effect="non-scaling-stroke" d="
  M 188.75 76.21
  C 197.79 69.46 194.59 56.02 184.50 52.21"
/>
<path stroke="#808d94" vector-effect="non-scaling-stroke" d="
  M 206.23 57.51
  L 206.34 52.69
  A 0.59 0.43 0.5 0 0 205.75 52.25
  L 199.00 52.25
  A 0.50 0.50 0.0 0 0 198.50 52.75
  L 198.50 78.00
  A 0.50 0.50 0.0 0 0 199.00 78.50
  L 205.74 78.50
  A 0.60 0.60 88.2 0 0 206.34 77.86
  C 205.84 68.86 205.59 59.04 216.54 59.51
  A 0.68 0.52 1.5 0 0 217.25 59.00
  L 217.26 52.50
  A 0.77 0.62 1.4 0 0 216.52 51.87
  Q 209.63 51.54 206.53 57.50
  Q 206.22 58.11 206.23 57.51"
/>
<path stroke="#383838" vector-effect="non-scaling-stroke" d="
  M 351.06 0.00
  L 343.43 0.44
  Q 340.92 0.58 342.32 2.20
  L 353.43 15.07
  A 1.72 1.29 28.3 0 1 353.84 15.96
  C 354.18 20.02 363.37 27.38 369.02 33.28
  Q 369.57 33.86 370.47 35.54
  C 371.48 37.43 374.08 38.35 375.24 39.48
  Q 380.68 44.74 385.99 50.17
  C 387.38 51.60 389.29 52.02 390.50 54.07
  A 1.04 1.02 -11.0 0 0 391.24 54.56
  Q 393.45 54.87 395.14 56.36
  Q 399.41 60.11 403.08 64.51"
/>
<path stroke="#839097" vector-effect="non-scaling-stroke" d="
  M 403.08 64.51
  L 394.41 77.82
  Q 393.98 78.50 394.75 78.50
  L 403.00 78.50
  A 1.31 0.68 -64.4 0 0 403.86 77.85
  L 409.80 68.81
  A 0.71 0.69 -45.8 0 1 410.97 68.77
  L 417.16 78.08
  A 1.08 0.92 -14.5 0 0 418.01 78.49
  L 426.75 78.46"
/>
<path stroke="#383838" vector-effect="non-scaling-stroke" d="
  M 426.75 78.46
  Q 428.59 75.65 429.10 78.97
  A 1.05 0.97 -80.4 0 0 429.59 79.72
  C 432.57 81.41 434.91 83.77 438.41 84.24
  A 1.52 0.88 -4.6 0 1 439.31 84.67
  Q 441.70 87.62 445.42 87.71
  A 1.35 0.31 -2.0 0 1 446.37 87.89
  L 451.01 91.22
  Q 451.44 91.53 451.67 91.99
  Q 452.53 93.70 452.57 91.55
  Q 452.58 91.26 452.67 91.54
  L 453.00 92.56"
/>
<path stroke="#839097" vector-effect="non-scaling-stroke" d="
  M 261.54 77.00
  C 261.42 69.00 260.24 59.00 271.84 59.51
  A 0.63 0.52 1.6 0 0 272.50 59.00
  L 272.50 52.50
  A 0.73 0.62 2.4 0 0 271.82 51.87
  Q 264.56 51.34 261.80 57.79
  Q 261.49 58.50 261.49 57.75
  L 261.50 53.00
  A 0.66 0.60 89.6 0 0 260.89 52.34
  L 253.54 52.50"
/>
<path stroke="#839097" vector-effect="non-scaling-stroke" d="
  M 248.53 78.28
  L 248.18 52.67
  A 0.42 0.40 -86.0 0 0 247.84 52.26
  L 247.50 52.21"
/>
<path stroke="#839097" vector-effect="non-scaling-stroke" d="
  M 318.97 66.95
  C 325.26 67.47 335.34 65.11 335.74 56.99
  C 336.50 41.80 322.63 42.91 310.77 43.30
  A 0.53 0.45 -0.6 0 0 310.25 43.75
  L 310.25 78.00
  A 0.50 0.50 0.0 0 0 310.75 78.50
  L 317.75 78.50
  A 0.50 0.50 0.0 0 0 318.25 78.00
  L 318.25 67.50
  A 0.67 0.56 2.8 0 1 318.97 66.95"
/>
<path stroke="#839097" vector-effect="non-scaling-stroke" d="
  M 348.21 57.26
  L 348.24 53.01
  A 0.75 0.74 -89.6 0 0 347.50 52.25
  L 340.75 52.25
  A 0.75 0.50 -90.0 0 0 340.25 53.00
  L 340.25 77.75
  A 0.75 0.50 90.0 0 0 340.75 78.50
  L 347.75 78.50
  A 0.55 0.49 89.4 0 0 348.24 77.94
  C 348.07 70.29 346.79 58.98 358.53 59.51
  A 0.66 0.51 1.6 0 0 359.23 59.00
  L 359.16 52.19
  A 0.82 0.35 0.6 0 0 358.35 51.83
  Q 351.72 51.67 348.55 57.25
  Q 348.21 57.85 348.21 57.26"
/>
<path stroke="#839097" vector-effect="non-scaling-stroke" d="
  M 390.1698 65.5022
  A 13.78 13.49 0.3 0 0 376.4606 51.9402
  A 13.78 13.49 0.3 0 0 362.6102 65.3578
  A 13.78 13.49 0.3 0 0 376.3194 78.9198
  A 13.78 13.49 0.3 0 0 390.1698 65.5022"
/>
<path stroke="#839097" vector-effect="non-scaling-stroke" d="
  M 290.22 68.26
  L 283.48 53.01
  A 1.16 0.53 70.7 0 0 282.75 52.25
  L 276.00 52.24
  A 0.59 0.43 73.9 0 0 275.71 53.05
  L 286.39 76.83
  A 1.26 0.49 59.6 0 1 286.54 77.77
  L 282.18 87.18
  A 0.60 0.33 -71.3 0 0 282.32 87.97
  L 289.25 88.00
  A 1.13 0.71 -72.7 0 0 290.05 87.31
  L 305.46 52.98
  A 0.52 0.51 -77.7 0 0 305.00 52.25
  L 298.25 52.25
  A 0.77 0.34 -70.6 0 0 297.77 52.76
  L 290.99 68.25
  Q 290.60 69.12 290.22 68.26"
/>
<path stroke="#87949a" vector-effect="non-scaling-stroke" d="
  M 426.75 78.46
  L 415.40 61.29
  A 1.06 0.96 -46.2 0 1 415.43 60.18
  L 426.31 43.79
  Q 426.66 43.25 426.00 43.25
  L 417.50 43.25
  A 1.07 0.76 -68.3 0 0 416.74 43.74
  L 410.59 53.08
  A 0.40 0.37 45.8 0 1 409.95 53.05
  L 403.75 43.75
  A 1.10 0.69 65.8 0 0 403.00 43.25
  L 394.50 43.25
  Q 393.88 43.25 394.23 43.77
  L 405.23 60.27
  A 0.82 0.78 45.3 0 1 405.25 61.15
  L 403.08 64.51"
/>
<path stroke="#185255" vector-effect="non-scaling-stroke" d="
  M 79.18 40.22
  C 76.39 21.72 51.04 25.46 52.67 42.68
  A 1.21 1.20 -83.9 0 0 53.51 43.73
  L 63.07 46.67
  A 3.42 3.10 40.2 0 0 65.32 46.59
  L 78.73 40.95
  A 0.74 0.65 -17.2 0 0 79.18 40.22"
/>
<path stroke="#185255" vector-effect="non-scaling-stroke" d="
  M 88.92 69.84
  Q 87.73 69.34 87.38 68.63
  Q 83.78 61.28 89.13 55.60
  A 1.39 1.03 -29.2 0 0 89.51 54.75
  L 89.54 43.81
  A 0.60 0.59 -8.9 0 0 88.75 43.25
  L 66.51 50.53
  A 0.99 0.79 80.0 0 0 65.98 51.50
  L 68.78 87.25
  A 0.37 0.34 -12.5 0 0 69.27 87.54
  L 88.81 79.81
  A 1.09 0.76 -14.8 0 0 89.50 79.00
  L 89.50 70.50
  A 0.92 0.59 15.7 0 0 88.92 69.84"
/>
<path stroke="#185255" vector-effect="non-scaling-stroke" d="
  M 62.01 51.16
  C 54.57 49.05 46.98 47.16 39.47 45.28
  A 0.76 0.69 4.7 0 0 38.53 46.00
  L 39.76 57.75
  A 0.92 0.69 12.3 0 0 40.30 58.37
  Q 49.33 62.17 44.95 71.70
  Q 44.48 72.72 41.98 74.07
  A 0.82 0.58 -21.1 0 0 41.53 74.75
  L 42.29 81.49
  A 0.99 0.75 6.6 0 0 43.02 82.19
  L 64.76 87.96
  A 0.49 0.41 7.3 0 0 65.38 87.56
  L 62.57 51.74
  A 0.76 0.61 7.5 0 0 62.01 51.16"
/>
<path stroke="#185255" vector-effect="non-scaling-stroke" d="
  M 91.7519 67.2094
  A 5.00 3.41 104.1 0 0 96.2773 63.1907
  A 5.00 3.41 104.1 0 0 94.1881 57.5106
  A 5.00 3.41 104.1 0 0 89.6627 61.5293
  A 5.00 3.41 104.1 0 0 91.7519 67.2094"
/>
<path stroke="#185255" vector-effect="non-scaling-stroke" d="
  M 41.01 62.76
  L 36.44 60.55
  A 0.71 0.65 -63.0 0 0 35.56 60.88
  Q 32.99 65.84 36.19 70.32
  A 1.31 0.36 58.3 0 0 36.92 71.00
  Q 42.32 71.92 42.74 66.51
  Q 42.96 63.71 41.01 62.76"
/>
<path stroke="#185255" vector-effect="non-scaling-stroke" d="
  M 76.29 100.75
  L 76.47 113.01
  Q 76.49 114.62 77.97 113.45
  C 83.18 109.37 85.35 96.00 86.03 89.58
  A 0.42 0.38 -9.9 0 0 85.45 89.21
  L 70.23 95.70
  A 1.65 1.46 37.9 0 1 69.25 95.76
  L 52.26 91.48
  A 0.46 0.42 7.0 0 0 51.69 91.88
  C 51.72 93.10 54.31 118.88 59.35 112.47
  A 1.67 1.22 71.4 0 0 59.64 111.56
  C 59.79 102.71 67.88 98.99 75.69 100.23
  A 0.71 0.51 5.3 0 1 76.29 100.75"
/>
<path stroke="#808d94" vector-effect="non-scaling-stroke" d="
  M 179.8167 71.8747
  A 6.56 6.17 92.3 0 0 186.2450 65.5676
  A 6.56 6.17 92.3 0 0 180.3433 58.7653
  A 6.56 6.17 92.3 0 0 173.9150 65.0724
  A 6.56 6.17 92.3 0 0 179.8167 71.8747"
/>
<path stroke="#839097" vector-effect="non-scaling-stroke" d="
  M 318.28 59.50
  A 0.65 0.45 3.2 0 0 318.88 59.97
  C 322.50 60.26 330.12 59.63 327.30 53.49
  C 325.87 50.37 321.64 50.34 318.78 50.91
  A 0.62 0.55 85.4 0 0 318.34 51.49
  L 318.28 59.50"
/>
<path stroke="#808d94" vector-effect="non-scaling-stroke" d="
  M 234.6959 71.8788
  A 6.56 6.14 88.9 0 0 240.7089 65.2021
  A 6.56 6.14 88.9 0 0 234.4441 58.7612
  A 6.56 6.14 88.9 0 0 228.4311 65.4379
  A 6.56 6.14 88.9 0 0 234.6959 71.8788"
/>
<path stroke="#7d8a91" vector-effect="non-scaling-stroke" d="
  M 148.0514 71.9396
  A 6.55 6.08 90.6 0 0 154.1997 65.4537
  A 6.55 6.08 90.6 0 0 148.1886 58.8404
  A 6.55 6.08 90.6 0 0 142.0403 65.3263
  A 6.55 6.08 90.6 0 0 148.0514 71.9396"
/>
<path stroke="#839097" vector-effect="non-scaling-stroke" d="
  M 376.4329 71.9400
  A 6.56 6.07 89.8 0 0 382.4800 65.3588
  A 6.56 6.07 89.8 0 0 376.3871 58.8200
  A 6.56 6.07 89.8 0 0 370.3400 65.4012
  A 6.56 6.07 89.8 0 0 376.4329 71.9400"
/>
</g>
<path fill="#212121" d="
  M 0.00 0.00
  L 35.06 0.00
  Q 37.28 -0.01 37.24 1.38
  Q 37.23 1.79 37.43 2.32
  Q 38.16 4.35 37.99 6.49
  A 1.58 1.25 -66.6 0 0 38.26 7.51
  Q 39.23 8.75 38.71 10.24
  A 1.19 0.40 54.0 0 0 38.99 11.14
  Q 39.85 12.55 40.65 13.97
  C 41.78 15.98 41.62 18.18 42.71 20.38
  A 1.72 1.51 -57.2 0 1 42.85 21.32
  C 42.58 23.10 43.83 24.52 44.68 26.02
  C 45.79 28.00 45.60 30.12 46.67 32.28
  A 1.33 0.49 57.2 0 1 46.88 33.21
  Q 46.32 34.94 47.83 35.91
  A 0.76 0.41 38.0 0 0 48.54 36.03
  Q 49.25 35.56 50.21 35.75
  L 49.19 41.71
  A 0.38 0.34 -76.2 0 1 48.74 42.02
  L 37.80 38.48
  A 0.37 0.37 3.4 0 0 37.32 38.90
  Q 37.89 41.71 35.28 40.93
  A 0.43 0.34 8.1 0 0 34.73 41.25
  L 36.37 56.27
  A 0.64 0.60 75.3 0 1 36.02 56.91
  C 27.80 60.46 30.33 72.07 37.76 74.84
  A 0.83 0.75 -84.6 0 1 38.25 75.50
  L 39.19 84.01
  A 0.80 0.76 -86.5 0 0 39.76 84.69
  L 47.57 86.67
  A 0.67 0.55 -85.2 0 1 48.00 87.29
  C 48.15 93.36 49.63 113.58 56.19 116.35
  C 63.34 119.38 62.53 108.82 65.40 106.12
  Q 68.24 103.46 72.54 103.66
  A 0.50 0.50 58.3 0 1 73.02 104.18
  C 72.80 109.18 72.16 121.00 80.49 115.94
  C 86.03 112.57 88.98 96.84 89.75 90.71
  Q 91.36 92.20 90.40 93.79
  Q 90.24 94.05 90.15 94.69
  Q 89.98 95.98 90.62 97.15
  A 0.23 0.16 67.3 0 1 90.55 97.46
  Q 90.45 97.48 90.36 97.45
  Q 90.15 97.41 90.22 97.59
  Q 92.25 102.66 95.50 107.10
  A 1.71 1.33 -69.4 0 1 95.78 108.00
  C 95.80 110.24 99.12 114.46 100.64 116.20
  A 1.29 0.62 39.0 0 1 101.02 117.00
  Q 100.88 119.24 102.83 120.13
  A 1.35 0.78 13.2 0 1 103.52 120.78
  Q 104.66 124.23 107.20 126.79
  A 1.68 1.41 22.5 0 1 107.66 127.67
  Q 108.11 130.71 110.74 133.24
  Q 113.43 135.82 110.70 138.00
  L 0.00 138.00
  L 0.00 0.00
  Z"
/>
<path fill="#282828" d="
  M 35.06 0.00
  L 161.81 0.00
  Q 163.35 2.49 163.77 5.36
  A 1.49 0.32 84.8 0 0 164.08 6.36
  Q 166.62 9.07 166.85 12.74
  A 1.55 1.04 27.4 0 0 167.35 13.65
  Q 169.46 15.61 169.24 18.50
  A 1.26 1.10 -67.6 0 0 169.56 19.45
  Q 172.21 22.15 172.47 25.97
  A 1.79 0.59 48.5 0 0 172.87 26.90
  L 176.40 32.07
  A 2.00 1.52 33.4 0 1 176.73 33.01
  L 176.75 34.00
  A 1.70 1.00 -76.6 0 0 177.03 34.91
  C 179.58 38.22 179.92 41.81 182.31 44.91
  C 183.67 46.68 185.97 49.50 183.88 51.03
  Q 183.56 51.27 183.96 51.31
  Q 184.88 51.42 184.50 52.21
  Q 179.21 50.80 174.84 53.97
  Q 174.25 54.40 174.25 53.75
  L 174.25 43.25
  A 0.50 0.50 0.0 0 0 173.75 42.75
  L 167.00 42.75
  A 0.55 0.44 0.0 0 0 166.45 43.19
  L 166.46 77.82
  A 0.68 0.55 90.0 0 0 167.01 78.50
  L 173.75 78.50
  A 0.50 0.50 0.0 0 0 174.25 78.00
  L 174.22 76.75
  Q 174.22 76.26 174.77 76.63
  Q 181.68 81.28 188.75 76.21
  Q 190.28 75.47 190.41 76.62
  A 0.85 0.28 -35.0 0 1 189.97 77.21
  L 186.73 79.72
  A 0.63 0.49 52.6 0 0 186.72 80.52
  L 192.72 88.27
  A 1.36 0.28 50.3 0 1 193.25 89.26
  Q 192.99 90.98 194.48 91.79
  Q 194.89 92.01 195.11 92.34
  Q 196.42 94.27 197.61 96.30
  C 199.55 99.59 202.44 101.02 203.80 105.03
  C 204.63 107.46 206.86 108.89 208.17 111.31
  C 209.74 114.21 212.24 116.16 213.85 118.90
  Q 216.09 122.70 219.04 126.07
  A 1.13 1.04 30.2 0 1 219.31 126.94
  Q 218.87 129.97 216.79 131.58
  Q 212.82 134.67 210.69 138.00
  L 110.70 138.00
  Q 113.43 135.82 110.74 133.24
  Q 108.11 130.71 107.66 127.67
  A 1.68 1.41 22.5 0 0 107.20 126.79
  Q 104.66 124.23 103.52 120.78
  A 1.35 0.78 13.2 0 0 102.83 120.13
  Q 100.88 119.24 101.02 117.00
  A 1.29 0.62 39.0 0 0 100.64 116.20
  C 99.12 114.46 95.80 110.24 95.78 108.00
  A 1.71 1.33 -69.4 0 0 95.50 107.10
  Q 92.25 102.66 90.22 97.59
  Q 90.15 97.41 90.36 97.45
  Q 90.45 97.48 90.55 97.46
  A 0.23 0.16 67.3 0 0 90.62 97.15
  Q 89.98 95.98 90.15 94.69
  Q 90.24 94.05 90.40 93.79
  Q 91.36 92.20 89.75 90.71
  L 90.03 84.30
  A 1.32 0.41 88.7 0 1 90.32 83.30
  Q 91.06 82.71 92.07 82.60
  A 1.27 1.07 -3.7 0 0 93.21 81.50
  L 93.11 71.74
  A 1.02 0.77 75.8 0 1 93.44 70.96
  C 94.32 70.30 95.42 70.16 96.26 69.55
  C 102.63 64.87 100.95 55.85 93.49 53.59
  A 0.68 0.59 9.0 0 1 93.00 53.00
  L 93.00 39.25
  A 0.73 0.40 85.7 0 0 92.49 38.46
  L 90.57 39.10
  A 0.54 0.51 -20.0 0 1 89.91 38.81
  Q 89.61 38.07 89.77 37.25
  Q 89.92 36.49 89.07 36.84
  L 83.06 39.31
  A 0.47 0.44 -18.3 0 1 82.43 39.02
  C 78.41 21.95 56.77 18.79 50.21 35.75
  Q 49.25 35.56 48.54 36.03
  A 0.76 0.41 38.0 0 1 47.83 35.91
  Q 46.32 34.94 46.88 33.21
  A 1.33 0.49 57.2 0 0 46.67 32.28
  C 45.60 30.12 45.79 28.00 44.68 26.02
  C 43.83 24.52 42.58 23.10 42.85 21.32
  A 1.72 1.51 -57.2 0 0 42.71 20.38
  C 41.62 18.18 41.78 15.98 40.65 13.97
  Q 39.85 12.55 38.99 11.14
  A 1.19 0.40 54.0 0 1 38.71 10.24
  Q 39.23 8.75 38.26 7.51
  A 1.58 1.25 -66.6 0 1 37.99 6.49
  Q 38.16 4.35 37.43 2.32
  Q 37.23 1.79 37.24 1.38
  Q 37.28 -0.01 35.06 0.00
  Z
  M 67.2608 14.9013
  A 1.63 1.63 0.0 0 0 65.6508 13.2515
  L 65.4508 13.2490
  A 1.63 1.63 0.0 0 0 63.8010 14.8590
  L 63.7592 18.2787
  A 1.63 1.63 0.0 0 0 65.3692 19.9285
  L 65.5692 19.9310
  A 1.63 1.63 0.0 0 0 67.2190 18.3210
  L 67.2608 14.9013
  Z
  M 75.9801 22.7281
  A 3.38 1.83 129.5 0 0 79.5421 21.2840
  A 3.38 1.83 129.5 0 0 80.2799 17.5119
  A 3.38 1.83 129.5 0 0 76.7179 18.9560
  A 3.38 1.83 129.5 0 0 75.9801 22.7281
  Z
  M 56.2309 22.3241
  A 1.33 1.33 0.0 0 0 56.1227 20.4464
  L 53.5393 18.1447
  A 1.33 1.33 0.0 0 0 51.6615 18.2529
  L 51.2491 18.7159
  A 1.33 1.33 0.0 0 0 51.3573 20.5936
  L 53.9407 22.8953
  A 1.33 1.33 0.0 0 0 55.8185 22.7871
  L 56.2309 22.3241
  Z
  M 129.75 43.07
  A 0.31 0.31 0.0 0 0 129.44 42.76
  L 122.32 42.76
  A 0.31 0.31 0.0 0 0 122.01 43.07
  L 122.01 78.19
  A 0.31 0.31 0.0 0 0 122.32 78.50
  L 129.44 78.50
  A 0.31 0.31 0.0 0 0 129.75 78.19
  L 129.75 43.07
  Z
  M 161.8639 65.8385
  A 13.77 13.49 1.7 0 0 148.5002 51.9459
  A 13.77 13.49 1.7 0 0 134.3361 65.0215
  A 13.77 13.49 1.7 0 0 147.6998 78.9141
  A 13.77 13.49 1.7 0 0 161.8639 65.8385
  Z"
/>
<path fill="#2e2e2e" d="
  M 161.81 0.00
  L 234.06 0.00
  L 223.22 0.25
  Q 220.27 0.32 221.67 2.78
  C 223.36 5.75 223.44 9.26 225.29 11.85
  Q 226.41 13.40 227.47 14.99
  C 228.33 16.26 227.67 17.38 228.64 18.78
  C 230.26 21.14 231.31 22.53 232.28 25.57
  C 233.31 28.80 236.20 30.75 236.68 34.24
  A 1.55 1.45 -72.9 0 0 237.10 35.10
  C 238.37 36.37 241.75 42.36 242.30 42.61
  A 1.56 1.04 6.5 0 1 243.01 43.21
  L 246.97 50.77
  A 0.29 0.12 -33.1 0 1 246.80 51.02
  Q 246.28 51.38 247.26 51.28
  A 0.45 0.33 -6.7 0 1 247.74 51.55
  Q 247.77 51.83 247.50 52.21
  L 240.78 52.27
  A 0.54 0.40 -5.1 0 0 240.23 52.76
  L 240.52 54.00
  Q 240.67 54.66 240.04 54.17
  Q 236.98 51.77 235.20 51.77
  C 224.58 51.73 218.74 59.75 221.29 69.65
  C 223.14 76.83 233.14 82.05 239.78 76.61
  Q 240.28 76.20 240.33 76.75
  L 240.44 77.86
  A 0.61 0.40 85.3 0 0 240.87 78.41
  L 248.53 78.28
  L 248.59 56.32
  Q 248.59 55.98 248.63 56.31
  Q 248.78 57.61 249.63 57.98
  A 0.92 0.59 -49.1 0 0 250.45 57.74
  Q 251.32 56.95 252.17 58.31
  Q 252.40 58.67 252.40 58.24
  L 252.43 52.23
  A 0.85 0.68 81.8 0 1 252.88 51.47
  Q 253.59 51.20 253.54 52.50
  L 253.53 77.94
  A 0.56 0.47 90.0 0 0 254.00 78.50
  L 261.00 78.50
  A 0.56 0.48 -88.1 0 0 261.48 77.97
  L 261.54 77.00
  Q 261.44 75.32 262.20 73.83
  A 0.46 0.45 30.3 0 1 262.86 73.66
  C 264.74 74.88 265.48 76.91 266.90 78.28
  C 269.91 81.18 271.65 82.33 272.79 86.59
  A 1.87 1.85 -75.3 0 0 273.27 87.42
  Q 278.92 93.06 284.57 98.73
  C 285.66 99.82 285.92 101.32 286.81 102.19
  Q 296.74 111.89 306.33 121.92
  C 306.82 122.43 308.53 122.84 309.35 123.64
  Q 316.03 130.16 323.34 135.96
  A 1.36 0.93 -82.7 0 1 323.75 136.76
  C 323.90 137.82 327.19 137.52 328.94 138.00
  L 210.69 138.00
  Q 212.82 134.67 216.79 131.58
  Q 218.87 129.97 219.31 126.94
  A 1.13 1.04 30.2 0 0 219.04 126.07
  Q 216.09 122.70 213.85 118.90
  C 212.24 116.16 209.74 114.21 208.17 111.31
  C 206.86 108.89 204.63 107.46 203.80 105.03
  C 202.44 101.02 199.55 99.59 197.61 96.30
  Q 196.42 94.27 195.11 92.34
  Q 194.89 92.01 194.48 91.79
  Q 192.99 90.98 193.25 89.26
  A 1.36 0.28 50.3 0 0 192.72 88.27
  L 186.72 80.52
  A 0.63 0.49 52.6 0 1 186.73 79.72
  L 189.97 77.21
  A 0.85 0.28 -35.0 0 0 190.41 76.62
  Q 190.28 75.47 188.75 76.21
  C 197.79 69.46 194.59 56.02 184.50 52.21
  Q 184.88 51.42 183.96 51.31
  Q 183.56 51.27 183.88 51.03
  C 185.97 49.50 183.67 46.68 182.31 44.91
  C 179.92 41.81 179.58 38.22 177.03 34.91
  A 1.70 1.00 -76.6 0 1 176.75 34.00
  L 176.73 33.01
  A 2.00 1.52 33.4 0 0 176.40 32.07
  L 172.87 26.90
  A 1.79 0.59 48.5 0 1 172.47 25.97
  Q 172.21 22.15 169.56 19.45
  A 1.26 1.10 -67.6 0 1 169.24 18.50
  Q 169.46 15.61 167.35 13.65
  A 1.55 1.04 27.4 0 1 166.85 12.74
  Q 166.62 9.07 164.08 6.36
  A 1.49 0.32 84.8 0 1 163.77 5.36
  Q 163.35 2.49 161.81 0.00
  Z
  M 206.23 57.51
  L 206.34 52.69
  A 0.59 0.43 0.5 0 0 205.75 52.25
  L 199.00 52.25
  A 0.50 0.50 0.0 0 0 198.50 52.75
  L 198.50 78.00
  A 0.50 0.50 0.0 0 0 199.00 78.50
  L 205.74 78.50
  A 0.60 0.60 88.2 0 0 206.34 77.86
  C 205.84 68.86 205.59 59.04 216.54 59.51
  A 0.68 0.52 1.5 0 0 217.25 59.00
  L 217.26 52.50
  A 0.77 0.62 1.4 0 0 216.52 51.87
  Q 209.63 51.54 206.53 57.50
  Q 206.22 58.11 206.23 57.51
  Z"
/>
<path fill="#343434" d="
  M 234.06 0.00
  L 351.06 0.00
  L 343.43 0.44
  Q 340.92 0.58 342.32 2.20
  L 353.43 15.07
  A 1.72 1.29 28.3 0 1 353.84 15.96
  C 354.18 20.02 363.37 27.38 369.02 33.28
  Q 369.57 33.86 370.47 35.54
  C 371.48 37.43 374.08 38.35 375.24 39.48
  Q 380.68 44.74 385.99 50.17
  C 387.38 51.60 389.29 52.02 390.50 54.07
  A 1.04 1.02 -11.0 0 0 391.24 54.56
  Q 393.45 54.87 395.14 56.36
  Q 399.41 60.11 403.08 64.51
  L 394.41 77.82
  Q 393.98 78.50 394.75 78.50
  L 403.00 78.50
  A 1.31 0.68 -64.4 0 0 403.86 77.85
  L 409.80 68.81
  A 0.71 0.69 -45.8 0 1 410.97 68.77
  L 417.16 78.08
  A 1.08 0.92 -14.5 0 0 418.01 78.49
  L 426.75 78.46
  Q 428.59 75.65 429.10 78.97
  A 1.05 0.97 -80.4 0 0 429.59 79.72
  C 432.57 81.41 434.91 83.77 438.41 84.24
  A 1.52 0.88 -4.6 0 1 439.31 84.67
  Q 441.70 87.62 445.42 87.71
  A 1.35 0.31 -2.0 0 1 446.37 87.89
  L 451.01 91.22
  Q 451.44 91.53 451.67 91.99
  Q 452.53 93.70 452.57 91.55
  Q 452.58 91.26 452.67 91.54
  L 453.00 92.56
  L 453.00 138.00
  L 328.94 138.00
  C 327.19 137.52 323.90 137.82 323.75 136.76
  A 1.36 0.93 -82.7 0 0 323.34 135.96
  Q 316.03 130.16 309.35 123.64
  C 308.53 122.84 306.82 122.43 306.33 121.92
  Q 296.74 111.89 286.81 102.19
  C 285.92 101.32 285.66 99.82 284.57 98.73
  Q 278.92 93.06 273.27 87.42
  A 1.87 1.85 -75.3 0 1 272.79 86.59
  C 271.65 82.33 269.91 81.18 266.90 78.28
  C 265.48 76.91 264.74 74.88 262.86 73.66
  A 0.46 0.45 30.3 0 0 262.20 73.83
  Q 261.44 75.32 261.54 77.00
  C 261.42 69.00 260.24 59.00 271.84 59.51
  A 0.63 0.52 1.6 0 0 272.50 59.00
  L 272.50 52.50
  A 0.73 0.62 2.4 0 0 271.82 51.87
  Q 264.56 51.34 261.80 57.79
  Q 261.49 58.50 261.49 57.75
  L 261.50 53.00
  A 0.66 0.60 89.6 0 0 260.89 52.34
  L 253.54 52.50
  Q 253.59 51.20 252.88 51.47
  A 0.85 0.68 81.8 0 0 252.43 52.23
  L 252.40 58.24
  Q 252.40 58.67 252.17 58.31
  Q 251.32 56.95 250.45 57.74
  A 0.92 0.59 -49.1 0 1 249.63 57.98
  Q 248.78 57.61 248.63 56.31
  Q 248.59 55.98 248.59 56.32
  L 248.53 78.28
  L 248.18 52.67
  A 0.42 0.40 -86.0 0 0 247.84 52.26
  L 247.50 52.21
  Q 247.77 51.83 247.74 51.55
  A 0.45 0.33 -6.7 0 0 247.26 51.28
  Q 246.28 51.38 246.80 51.02
  A 0.29 0.12 -33.1 0 0 246.97 50.77
  L 243.01 43.21
  A 1.56 1.04 6.5 0 0 242.30 42.61
  C 241.75 42.36 238.37 36.37 237.10 35.10
  A 1.55 1.45 -72.9 0 1 236.68 34.24
  C 236.20 30.75 233.31 28.80 232.28 25.57
  C 231.31 22.53 230.26 21.14 228.64 18.78
  C 227.67 17.38 228.33 16.26 227.47 14.99
  Q 226.41 13.40 225.29 11.85
  C 223.44 9.26 223.36 5.75 221.67 2.78
  Q 220.27 0.32 223.22 0.25
  L 234.06 0.00
  Z
  M 318.97 66.95
  C 325.26 67.47 335.34 65.11 335.74 56.99
  C 336.50 41.80 322.63 42.91 310.77 43.30
  A 0.53 0.45 -0.6 0 0 310.25 43.75
  L 310.25 78.00
  A 0.50 0.50 0.0 0 0 310.75 78.50
  L 317.75 78.50
  A 0.50 0.50 0.0 0 0 318.25 78.00
  L 318.25 67.50
  A 0.67 0.56 2.8 0 1 318.97 66.95
  Z
  M 348.21 57.26
  L 348.24 53.01
  A 0.75 0.74 -89.6 0 0 347.50 52.25
  L 340.75 52.25
  A 0.75 0.50 -90.0 0 0 340.25 53.00
  L 340.25 77.75
  A 0.75 0.50 90.0 0 0 340.75 78.50
  L 347.75 78.50
  A 0.55 0.49 89.4 0 0 348.24 77.94
  C 348.07 70.29 346.79 58.98 358.53 59.51
  A 0.66 0.51 1.6 0 0 359.23 59.00
  L 359.16 52.19
  A 0.82 0.35 0.6 0 0 358.35 51.83
  Q 351.72 51.67 348.55 57.25
  Q 348.21 57.85 348.21 57.26
  Z
  M 390.1698 65.5022
  A 13.78 13.49 0.3 0 0 376.4606 51.9402
  A 13.78 13.49 0.3 0 0 362.6102 65.3578
  A 13.78 13.49 0.3 0 0 376.3194 78.9198
  A 13.78 13.49 0.3 0 0 390.1698 65.5022
  Z
  M 290.22 68.26
  L 283.48 53.01
  A 1.16 0.53 70.7 0 0 282.75 52.25
  L 276.00 52.24
  A 0.59 0.43 73.9 0 0 275.71 53.05
  L 286.39 76.83
  A 1.26 0.49 59.6 0 1 286.54 77.77
  L 282.18 87.18
  A 0.60 0.33 -71.3 0 0 282.32 87.97
  L 289.25 88.00
  A 1.13 0.71 -72.7 0 0 290.05 87.31
  L 305.46 52.98
  A 0.52 0.51 -77.7 0 0 305.00 52.25
  L 298.25 52.25
  A 0.77 0.34 -70.6 0 0 297.77 52.76
  L 290.99 68.25
  Q 290.60 69.12 290.22 68.26
  Z"
/>
<path fill="#3b3b3b" d="
  M 351.06 0.00
  L 453.00 0.00
  L 453.00 92.56
  L 452.67 91.54
  Q 452.58 91.26 452.57 91.55
  Q 452.53 93.70 451.67 91.99
  Q 451.44 91.53 451.01 91.22
  L 446.37 87.89
  A 1.35 0.31 -2.0 0 0 445.42 87.71
  Q 441.70 87.62 439.31 84.67
  A 1.52 0.88 -4.6 0 0 438.41 84.24
  C 434.91 83.77 432.57 81.41 429.59 79.72
  A 1.05 0.97 -80.4 0 1 429.10 78.97
  Q 428.59 75.65 426.75 78.46
  L 415.40 61.29
  A 1.06 0.96 -46.2 0 1 415.43 60.18
  L 426.31 43.79
  Q 426.66 43.25 426.00 43.25
  L 417.50 43.25
  A 1.07 0.76 -68.3 0 0 416.74 43.74
  L 410.59 53.08
  A 0.40 0.37 45.8 0 1 409.95 53.05
  L 403.75 43.75
  A 1.10 0.69 65.8 0 0 403.00 43.25
  L 394.50 43.25
  Q 393.88 43.25 394.23 43.77
  L 405.23 60.27
  A 0.82 0.78 45.3 0 1 405.25 61.15
  L 403.08 64.51
  Q 399.41 60.11 395.14 56.36
  Q 393.45 54.87 391.24 54.56
  A 1.04 1.02 -11.0 0 1 390.50 54.07
  C 389.29 52.02 387.38 51.60 385.99 50.17
  Q 380.68 44.74 375.24 39.48
  C 374.08 38.35 371.48 37.43 370.47 35.54
  Q 369.57 33.86 369.02 33.28
  C 363.37 27.38 354.18 20.02 353.84 15.96
  A 1.72 1.29 28.3 0 0 353.43 15.07
  L 342.32 2.20
  Q 340.92 0.58 343.43 0.44
  L 351.06 0.00
  Z"
/>
<rect fill="#0e8388" x="-1.73" y="-3.34" transform="translate(65.51,16.59) rotate(0.7)" width="3.46" height="6.68" rx="1.63"/>
<ellipse fill="#0e8388" cx="0.00" cy="0.00" transform="translate(78.13,20.12) rotate(129.5)" rx="3.38" ry="1.83"/>
<rect fill="#0e8388" x="-3.06" y="-1.64" transform="translate(53.74,20.52) rotate(41.7)" width="6.12" height="3.28" rx="1.33"/>
<path fill="#0e8388" d="
  M 89.75 90.71
  C 88.98 96.84 86.03 112.57 80.49 115.94
  C 72.16 121.00 72.80 109.18 73.02 104.18
  A 0.50 0.50 0.0 0 0 72.54 103.66
  Q 68.24 103.46 65.40 106.12
  C 62.53 108.82 63.34 119.38 56.19 116.35
  C 49.63 113.58 48.15 93.36 48.00 87.29
  A 0.67 0.55 -85.2 0 0 47.57 86.67
  L 39.76 84.69
  A 0.80 0.76 -86.5 0 1 39.19 84.01
  L 38.25 75.50
  A 0.83 0.75 -84.6 0 0 37.76 74.84
  C 30.33 72.07 27.80 60.46 36.02 56.91
  A 0.64 0.60 75.3 0 0 36.37 56.27
  L 34.73 41.25
  A 0.43 0.34 8.1 0 1 35.28 40.93
  Q 37.89 41.71 37.32 38.90
  A 0.37 0.37 3.4 0 1 37.80 38.48
  L 48.74 42.02
  A 0.38 0.34 -76.2 0 0 49.19 41.71
  L 50.21 35.75
  C 56.77 18.79 78.41 21.95 82.43 39.02
  A 0.47 0.44 -18.3 0 0 83.06 39.31
  L 89.07 36.84
  Q 89.92 36.49 89.77 37.25
  Q 89.61 38.07 89.91 38.81
  A 0.54 0.51 -20.0 0 0 90.57 39.10
  L 92.49 38.46
  A 0.73 0.40 85.7 0 1 93.00 39.25
  L 93.00 53.00
  A 0.68 0.59 9.0 0 0 93.49 53.59
  C 100.95 55.85 102.63 64.87 96.26 69.55
  C 95.42 70.16 94.32 70.30 93.44 70.96
  A 1.02 0.77 75.8 0 0 93.11 71.74
  L 93.21 81.50
  A 1.27 1.07 -3.7 0 1 92.07 82.60
  Q 91.06 82.71 90.32 83.30
  A 1.32 0.41 88.7 0 0 90.03 84.30
  L 89.75 90.71
  Z
  M 79.18 40.22
  C 76.39 21.72 51.04 25.46 52.67 42.68
  A 1.21 1.20 -83.9 0 0 53.51 43.73
  L 63.07 46.67
  A 3.42 3.10 40.2 0 0 65.32 46.59
  L 78.73 40.95
  A 0.74 0.65 -17.2 0 0 79.18 40.22
  Z
  M 88.92 69.84
  Q 87.73 69.34 87.38 68.63
  Q 83.78 61.28 89.13 55.60
  A 1.39 1.03 -29.2 0 0 89.51 54.75
  L 89.54 43.81
  A 0.60 0.59 -8.9 0 0 88.75 43.25
  L 66.51 50.53
  A 0.99 0.79 80.0 0 0 65.98 51.50
  L 68.78 87.25
  A 0.37 0.34 -12.5 0 0 69.27 87.54
  L 88.81 79.81
  A 1.09 0.76 -14.8 0 0 89.50 79.00
  L 89.50 70.50
  A 0.92 0.59 15.7 0 0 88.92 69.84
  Z
  M 62.01 51.16
  C 54.57 49.05 46.98 47.16 39.47 45.28
  A 0.76 0.69 4.7 0 0 38.53 46.00
  L 39.76 57.75
  A 0.92 0.69 12.3 0 0 40.30 58.37
  Q 49.33 62.17 44.95 71.70
  Q 44.48 72.72 41.98 74.07
  A 0.82 0.58 -21.1 0 0 41.53 74.75
  L 42.29 81.49
  A 0.99 0.75 6.6 0 0 43.02 82.19
  L 64.76 87.96
  A 0.49 0.41 7.3 0 0 65.38 87.56
  L 62.57 51.74
  A 0.76 0.61 7.5 0 0 62.01 51.16
  Z
  M 91.7519 67.2094
  A 5.00 3.41 104.1 0 0 96.2773 63.1907
  A 5.00 3.41 104.1 0 0 94.1881 57.5106
  A 5.00 3.41 104.1 0 0 89.6627 61.5293
  A 5.00 3.41 104.1 0 0 91.7519 67.2094
  Z
  M 41.01 62.76
  L 36.44 60.55
  A 0.71 0.65 -63.0 0 0 35.56 60.88
  Q 32.99 65.84 36.19 70.32
  A 1.31 0.36 58.3 0 0 36.92 71.00
  Q 42.32 71.92 42.74 66.51
  Q 42.96 63.71 41.01 62.76
  Z
  M 76.29 100.75
  L 76.47 113.01
  Q 76.49 114.62 77.97 113.45
  C 83.18 109.37 85.35 96.00 86.03 89.58
  A 0.42 0.38 -9.9 0 0 85.45 89.21
  L 70.23 95.70
  A 1.65 1.46 37.9 0 1 69.25 95.76
  L 52.26 91.48
  A 0.46 0.42 7.0 0 0 51.69 91.88
  C 51.72 93.10 54.31 118.88 59.35 112.47
  A 1.67 1.22 71.4 0 0 59.64 111.56
  C 59.79 102.71 67.88 98.99 75.69 100.23
  A 0.71 0.51 5.3 0 1 76.29 100.75
  Z"
/>
<path fill="#212121" d="
  M 52.67 42.68
  C 51.04 25.46 76.39 21.72 79.18 40.22
  A 0.74 0.65 -17.2 0 1 78.73 40.95
  L 65.32 46.59
  A 3.42 3.10 40.2 0 1 63.07 46.67
  L 53.51 43.73
  A 1.21 1.20 -83.9 0 1 52.67 42.68
  Z"
/>
<rect fill="#d2ecf9" x="122.01" y="42.76" width="7.74" height="35.74" rx="0.31"/>
<path fill="#d2ecf9" d="
  M 184.50 52.21
  C 194.59 56.02 197.79 69.46 188.75 76.21
  Q 181.68 81.28 174.77 76.63
  Q 174.22 76.26 174.22 76.75
  L 174.25 78.00
  A 0.50 0.50 0.0 0 1 173.75 78.50
  L 167.01 78.50
  A 0.68 0.55 -90.0 0 1 166.46 77.82
  L 166.45 43.19
  A 0.55 0.44 -0.0 0 1 167.00 42.75
  L 173.75 42.75
  A 0.50 0.50 0.0 0 1 174.25 43.25
  L 174.25 53.75
  Q 174.25 54.40 174.84 53.97
  Q 179.21 50.80 184.50 52.21
  Z
  M 179.8167 71.8747
  A 6.56 6.17 92.3 0 0 186.2450 65.5676
  A 6.56 6.17 92.3 0 0 180.3433 58.7653
  A 6.56 6.17 92.3 0 0 173.9150 65.0724
  A 6.56 6.17 92.3 0 0 179.8167 71.8747
  Z"
/>
<path fill="#212121" d="
  M 88.92 69.84
  A 0.92 0.59 15.7 0 1 89.50 70.50
  L 89.50 79.00
  A 1.09 0.76 -14.8 0 1 88.81 79.81
  L 69.27 87.54
  A 0.37 0.34 -12.5 0 1 68.78 87.25
  L 65.98 51.50
  A 0.99 0.79 80.0 0 1 66.51 50.53
  L 88.75 43.25
  A 0.60 0.59 -8.9 0 1 89.54 43.81
  L 89.51 54.75
  A 1.39 1.03 -29.2 0 1 89.13 55.60
  Q 83.78 61.28 87.38 68.63
  Q 87.73 69.34 88.92 69.84
  Z"
/>
<path fill="#d2ecf9" d="
  M 335.74 56.99
  C 335.34 65.11 325.26 67.47 318.97 66.95
  A 0.67 0.56 2.8 0 0 318.25 67.50
  L 318.25 78.00
  A 0.50 0.50 0.0 0 1 317.75 78.50
  L 310.75 78.50
  A 0.50 0.50 0.0 0 1 310.25 78.00
  L 310.25 43.75
  A 0.53 0.45 -0.6 0 1 310.77 43.30
  C 322.63 42.91 336.50 41.80 335.74 56.99
  Z
  M 318.28 59.50
  A 0.65 0.45 3.2 0 0 318.88 59.97
  C 322.50 60.26 330.12 59.63 327.30 53.49
  C 325.87 50.37 321.64 50.34 318.78 50.91
  A 0.62 0.55 85.4 0 0 318.34 51.49
  L 318.28 59.50
  Z"
/>
<path fill="#d2ecf9" d="
  M 426.75 78.46
  L 418.01 78.49
  A 1.08 0.92 -14.5 0 1 417.16 78.08
  L 410.97 68.77
  A 0.71 0.69 -45.8 0 0 409.80 68.81
  L 403.86 77.85
  A 1.31 0.68 -64.4 0 1 403.00 78.50
  L 394.75 78.50
  Q 393.98 78.50 394.41 77.82
  L 403.08 64.51
  L 405.25 61.15
  A 0.82 0.78 45.3 0 0 405.23 60.27
  L 394.23 43.77
  Q 393.88 43.25 394.50 43.25
  L 403.00 43.25
  A 1.10 0.69 65.8 0 1 403.75 43.75
  L 409.95 53.05
  A 0.40 0.37 45.8 0 0 410.59 53.08
  L 416.74 43.74
  A 1.07 0.76 -68.3 0 1 417.50 43.25
  L 426.00 43.25
  Q 426.66 43.25 426.31 43.79
  L 415.43 60.18
  A 1.06 0.96 -46.2 0 0 415.40 61.29
  L 426.75 78.46
  Z"
/>
<path fill="#212121" d="
  M 39.47 45.28
  C 46.98 47.16 54.57 49.05 62.01 51.16
  A 0.76 0.61 7.5 0 1 62.57 51.74
  L 65.38 87.56
  A 0.49 0.41 7.3 0 1 64.76 87.96
  L 43.02 82.19
  A 0.99 0.75 6.6 0 1 42.29 81.49
  L 41.53 74.75
  A 0.82 0.58 -21.1 0 1 41.98 74.07
  Q 44.48 72.72 44.95 71.70
  Q 49.33 62.17 40.30 58.37
  A 0.92 0.69 12.3 0 1 39.76 57.75
  L 38.53 46.00
  A 0.76 0.69 4.7 0 1 39.47 45.28
  Z"
/>
<path fill="#343434" d="
  M 318.28 59.50
  L 318.34 51.49
  A 0.62 0.55 85.4 0 1 318.78 50.91
  C 321.64 50.34 325.87 50.37 327.30 53.49
  C 330.12 59.63 322.50 60.26 318.88 59.97
  A 0.65 0.45 3.2 0 1 318.28 59.50
  Z"
/>
<path fill="#d2ecf9" d="
  M 206.53 57.50
  Q 209.63 51.54 216.52 51.87
  A 0.77 0.62 1.4 0 1 217.26 52.50
  L 217.25 59.00
  A 0.68 0.52 1.5 0 1 216.54 59.51
  C 205.59 59.04 205.84 68.86 206.34 77.86
  A 0.60 0.60 88.2 0 1 205.74 78.50
  L 199.00 78.50
  A 0.50 0.50 0.0 0 1 198.50 78.00
  L 198.50 52.75
  A 0.50 0.50 0.0 0 1 199.00 52.25
  L 205.75 52.25
  A 0.59 0.43 0.5 0 1 206.34 52.69
  L 206.23 57.51
  Q 206.22 58.11 206.53 57.50
  Z"
/>
<path fill="#d2ecf9" d="
  M 247.50 52.21
  L 247.84 52.26
  A 0.42 0.40 -86.0 0 1 248.18 52.67
  L 248.53 78.28
  L 240.87 78.41
  A 0.61 0.40 85.3 0 1 240.44 77.86
  L 240.33 76.75
  Q 240.28 76.20 239.78 76.61
  C 233.14 82.05 223.14 76.83 221.29 69.65
  C 218.74 59.75 224.58 51.73 235.20 51.77
  Q 236.98 51.77 240.04 54.17
  Q 240.67 54.66 240.52 54.00
  L 240.23 52.76
  A 0.54 0.40 -5.1 0 1 240.78 52.27
  L 247.50 52.21
  Z
  M 234.6959 71.8788
  A 6.56 6.14 88.9 0 0 240.7089 65.2021
  A 6.56 6.14 88.9 0 0 234.4441 58.7612
  A 6.56 6.14 88.9 0 0 228.4311 65.4379
  A 6.56 6.14 88.9 0 0 234.6959 71.8788
  Z"
/>
<path fill="#d2ecf9" d="
  M 261.54 77.00
  L 261.48 77.97
  A 0.56 0.48 -88.1 0 1 261.00 78.50
  L 254.00 78.50
  A 0.56 0.47 -90.0 0 1 253.53 77.94
  L 253.54 52.50
  L 260.89 52.34
  A 0.66 0.60 89.6 0 1 261.50 53.00
  L 261.49 57.75
  Q 261.49 58.50 261.80 57.79
  Q 264.56 51.34 271.82 51.87
  A 0.73 0.62 2.4 0 1 272.50 52.50
  L 272.50 59.00
  A 0.63 0.52 1.6 0 1 271.84 59.51
  C 260.24 59.00 261.42 69.00 261.54 77.00
  Z"
/>
<path fill="#d2ecf9" d="
  M 348.55 57.25
  Q 351.72 51.67 358.35 51.83
  A 0.82 0.35 0.6 0 1 359.16 52.19
  L 359.23 59.00
  A 0.66 0.51 1.6 0 1 358.53 59.51
  C 346.79 58.98 348.07 70.29 348.24 77.94
  A 0.55 0.49 89.4 0 1 347.75 78.50
  L 340.75 78.50
  A 0.75 0.50 90.0 0 1 340.25 77.75
  L 340.25 53.00
  A 0.75 0.50 -90.0 0 1 340.75 52.25
  L 347.50 52.25
  A 0.75 0.74 -89.6 0 1 348.24 53.01
  L 348.21 57.26
  Q 348.21 57.85 348.55 57.25
  Z"
/>
<path fill="#d2ecf9" d="
  M 161.8639 65.8385
  A 13.77 13.49 1.7 0 1 147.6998 78.9141
  A 13.77 13.49 1.7 0 1 134.3361 65.0215
  A 13.77 13.49 1.7 0 1 148.5002 51.9459
  A 13.77 13.49 1.7 0 1 161.8639 65.8385
  Z
  M 148.0514 71.9396
  A 6.55 6.08 90.6 0 0 154.1997 65.4537
  A 6.55 6.08 90.6 0 0 148.1886 58.8404
  A 6.55 6.08 90.6 0 0 142.0403 65.3263
  A 6.55 6.08 90.6 0 0 148.0514 71.9396
  Z"
/>
<path fill="#d2ecf9" d="
  M 390.1698 65.5022
  A 13.78 13.49 0.3 0 1 376.3194 78.9198
  A 13.78 13.49 0.3 0 1 362.6102 65.3578
  A 13.78 13.49 0.3 0 1 376.4606 51.9402
  A 13.78 13.49 0.3 0 1 390.1698 65.5022
  Z
  M 376.4329 71.9400
  A 6.56 6.07 89.8 0 0 382.4800 65.3588
  A 6.56 6.07 89.8 0 0 376.3871 58.8200
  A 6.56 6.07 89.8 0 0 370.3400 65.4012
  A 6.56 6.07 89.8 0 0 376.4329 71.9400
  Z"
/>
<path fill="#d2ecf9" d="
  M 290.99 68.25
  L 297.77 52.76
  A 0.77 0.34 -70.6 0 1 298.25 52.25
  L 305.00 52.25
  A 0.52 0.51 -77.7 0 1 305.46 52.98
  L 290.05 87.31
  A 1.13 0.71 -72.7 0 1 289.25 88.00
  L 282.32 87.97
  A 0.60 0.33 -71.3 0 1 282.18 87.18
  L 286.54 77.77
  A 1.26 0.49 59.6 0 0 286.39 76.83
  L 275.71 53.05
  A 0.59 0.43 73.9 0 1 276.00 52.24
  L 282.75 52.25
  A 1.16 0.53 70.7 0 1 283.48 53.01
  L 290.22 68.26
  Q 290.60 69.12 290.99 68.25
  Z"
/>
<ellipse fill="#212121" cx="0.00" cy="0.00" transform="translate(92.97,62.36) rotate(104.1)" rx="5.00" ry="3.41"/>
<ellipse fill="#282828" cx="0.00" cy="0.00" transform="translate(148.12,65.39) rotate(90.6)" rx="6.55" ry="6.08"/>
<ellipse fill="#2e2e2e" cx="0.00" cy="0.00" transform="translate(180.08,65.32) rotate(92.3)" rx="6.56" ry="6.17"/>
<ellipse fill="#2e2e2e" cx="0.00" cy="0.00" transform="translate(234.57,65.32) rotate(88.9)" rx="6.56" ry="6.14"/>
<ellipse fill="#343434" cx="0.00" cy="0.00" transform="translate(376.41,65.38) rotate(89.8)" rx="6.56" ry="6.07"/>
<path fill="#212121" d="
  M 41.01 62.76
  Q 42.96 63.71 42.74 66.51
  Q 42.32 71.92 36.92 71.00
  A 1.31 0.36 58.3 0 1 36.19 70.32
  Q 32.99 65.84 35.56 60.88
  A 0.71 0.65 -63.0 0 1 36.44 60.55
  L 41.01 62.76
  Z"
/>
<path fill="#212121" d="
  M 75.69 100.23
  C 67.88 98.99 59.79 102.71 59.64 111.56
  A 1.67 1.22 71.4 0 1 59.35 112.47
  C 54.31 118.88 51.72 93.10 51.69 91.88
  A 0.46 0.42 7.0 0 1 52.26 91.48
  L 69.25 95.76
  A 1.65 1.46 37.9 0 0 70.23 95.70
  L 85.45 89.21
  A 0.42 0.38 -9.9 0 1 86.03 89.58
  C 85.35 96.00 83.18 109.37 77.97 113.45
  Q 76.49 114.62 76.47 113.01
  L 76.29 100.75
  A 0.71 0.51 5.3 0 0 75.69 100.23
  Z"
/>
</svg>
