<svg version="1.2" xmlns="http://www.w3.org/2000/svg" viewBox="0 0 86 85" width="86" height="85"><style>.a{fill:#2b2e4a}.b{fill:#e84545}.c{fill:#f08a5d}</style><path fill-rule="evenodd" class="a" d="m38.4 58.6q8.7 8.3 17 17 0.1 0.1 0.2 0.3 0.1 0.2 0.1 0.4 0 0.2-0.1 0.4-0.1 0.2-0.3 0.3-2.1 2-4.3 4c-5.1 4.9-10.7 4.9-15.8 0q-25.6-24.7-32.2-31.5c-4.7-4.9-3.2-10.7 1.2-15.3q14-14.4 28-28.8c8.4-8.5 15.1-4.9 21.9 2.9q0.2 0.1 0.2 0.3 0.1 0.2 0.1 0.4 0 0.2-0.1 0.3-0.1 0.2-0.2 0.3-15.9 16.5-20.5 21-7.8 7.6-4.6 16.7c1.5 4.4 6 8 9.4 11.3zm-18.4-16.1q0-1-0.4-1.9-0.4-0.9-1.1-1.6-0.7-0.7-1.6-1-0.9-0.4-1.9-0.4-0.9 0-1.8 0.4-0.9 0.3-1.6 1-0.7 0.7-1.1 1.6-0.4 0.9-0.4 1.9 0 1 0.4 1.9 0.4 0.9 1.1 1.6 0.7 0.7 1.6 1 0.9 0.4 1.8 0.4 1 0 1.9-0.4 0.9-0.3 1.6-1 0.7-0.7 1.1-1.6 0.4-0.9 0.4-1.9z"/><path class="b" d="m42.4 52.7c-5.6 0-10.2-4.6-10.2-10.3 0-5.7 4.6-10.3 10.2-10.3 5.7 0 10.3 4.6 10.3 10.3 0 5.7-4.6 10.3-10.3 10.3z"/><path class="c" d="m79.1 54.3q-9 9.5-18.4 19-0.1 0.1-0.3 0.2-0.2 0.1-0.4 0.1-0.2 0-0.3-0.1-0.2-0.1-0.4-0.2l-14-13.8q-1.4-1.4 0.5-1.7 9.7-2 11.7-10.9c1.5-6.3-1.2-12.2-6.4-15.9q-2.7-1.9-6-2-1.9-0.1-0.6-1.4l13.9-13.9q0.1-0.1 0.3-0.2 0.2 0 0.4 0 0.2 0 0.3 0 0.2 0.1 0.4 0.2 11.4 11 22.5 22.3c7.3 7.4 2 12.7-3.2 18.3z"/></svg>