<?xml version="1.0" encoding="UTF-8" standalone="no"?>
<!DOCTYPE svg PUBLIC "-//W3C//DTD SVG 1.1//EN" "http://www.w3.org/Graphics/SVG/1.1/DTD/svg11.dtd">
<svg xmlns="http://www.w3.org/2000/svg" version="1.1" viewBox="0 0 86 85">
<path fill="#2b2e4a" d="
  M 10.53 56.90
  C 3.77 50.17 -5.34 44.39 4.54 34.05
  Q 18.37 19.58 32.51 5.42
  C 40.38 -2.45 47.57 0.34 53.97 8.11
  A 1.00 1.00 0.0 0 1 53.94 9.42
  Q 46.32 17.83 33.34 30.81
  C 26.33 37.83 26.55 46.68 33.38 53.51
  Q 44.31 64.41 55.18 75.33
  A 0.99 0.99 0.0 0 1 55.22 76.69
  Q 53.23 78.93 50.17 81.46
  Q 42.64 87.70 35.50 81.01
  Q 22.83 69.13 10.53 56.90
  Z
  M 19.86 42.48
  A 4.85 4.85 0.0 0 0 15.01 37.63
  A 4.85 4.85 0.0 0 0 10.16 42.48
  A 4.85 4.85 0.0 0 0 15.01 47.33
  A 4.85 4.85 0.0 0 0 19.86 42.48
  Z"
/>
<path fill="#f08a5d" d="
  M 56.37 70.39
  Q 50.63 65.00 45.28 59.35
  Q 44.05 58.05 45.80 57.68
  Q 49.48 56.91 52.38 54.82
  C 60.78 48.75 58.93 35.04 50.01 30.41
  Q 47.88 29.30 45.41 29.02
  Q 43.35 28.79 44.81 27.32
  L 58.34 13.77
  A 1.01 1.01 0.0 0 1 59.75 13.76
  Q 71.54 25.11 82.60 36.39
  C 87.84 41.74 85.93 46.43 81.35 51.56
  Q 71.49 62.58 60.68 73.13
  A 1.01 1.00 44.4 0 1 59.30 73.14
  Q 57.91 71.84 56.37 70.39
  Z"
/>
<circle fill="#e84545" cx="42.45" cy="42.39" r="10.24"/>
</svg>
